<?xml version="1.0" encoding="UTF-8" standalone="no"?>
<!DOCTYPE svg PUBLIC "-//W3C//DTD SVG 1.1//EN" "http://www.w3.org/Graphics/SVG/1.1/DTD/svg11.dtd">
<!-- Created with Vectornator (http://vectornator.io/) -->
<svg height="100%" stroke-miterlimit="10" style="fill-rule:nonzero;clip-rule:evenodd;stroke-linecap:round;stroke-linejoin:round;" version="1.1" viewBox="0 0 999.937 999.937" width="100%" xml:space="preserve" xmlns="http://www.w3.org/2000/svg" xmlns:vectornator="http://vectornator.io" xmlns:xlink="http://www.w3.org/1999/xlink">
<defs/>
<clipPath id="ArtboardFrame">
<rect height="999.937" width="999.937" x="0" y="0"/>
</clipPath>
<g clip-path="url(#ArtboardFrame)" id="Ebene-1" vectornator:layerName="Ebene 1">
<path d="M-92.8697-1.34943L1000.06-1.34943L1000.06 1001.84L-92.8697 1001.84L-92.8697-1.34943Z" fill="#ffffff" fill-rule="evenodd" opacity="1" stroke="none"/>
</g>
<g clip-path="url(#ArtboardFrame)" id="Untitled" vectornator:layerName="Untitled">
<path d="M0 499.968C0 361.956 48.825 244.125 146.476 146.475C244.125 48.825 361.956 0 499.969 0C637.98 0 755.811 48.825 853.462 146.475C951.111 244.125 999.937 361.956 999.937 499.968C999.937 637.98 951.112 755.811 853.462 853.461C755.812 951.111 637.981 999.937 499.969 999.937C361.956 999.937 244.125 951.112 146.476 853.461C48.825 755.812 0 637.979 0 499.968ZM54.684 499.968C54.684 622.357 98.301 727.167 185.535 814.402C272.769 901.635 377.58 945.253 499.969 945.253C622.357 945.253 727.168 901.636 814.402 814.402C901.636 727.168 945.253 622.357 945.253 499.968C945.253 377.58 901.637 272.769 814.402 185.535C727.168 98.301 622.356 54.684 499.969 54.684C377.58 54.684 272.77 98.301 185.535 185.535C98.301 272.769 54.684 377.58 54.684 499.968ZM195.301 607.383C192.697 604.779 192.697 602.175 195.301 599.571C200.508 594.363 207.019 592.41 214.83 593.712C222.642 595.014 227.199 596.316 228.501 597.618C237.615 601.524 247.706 610.312 258.772 623.984C269.838 637.655 278.627 647.094 285.138 652.302C316.386 678.342 348.284 680.295 380.834 658.161C383.438 649.047 387.67 641.235 393.528 634.724C399.386 628.214 404.921 623.658 410.129 621.053C415.338 618.449 424.452 614.543 437.472 609.335C394.505 605.429 359.677 597.942 332.986 586.875C306.295 575.808 285.137 561.812 269.513 544.886C248.681 521.45 235.986 490.853 231.429 453.095C226.871 415.337 229.801 380.834 240.218 349.586C248.03 330.056 259.097 312.48 273.418 296.855C263.002 264.305 264.955 227.198 279.277 185.534C320.941 188.138 358.699 202.46 392.551 228.5C457.651 211.574 525.355 210.923 595.662 226.547C604.776 220.037 618.773 211.9 637.651 202.134C656.53 192.369 680.292 186.835 708.936 185.533C714.144 199.855 717.725 216.781 719.678 236.311C721.631 255.841 720.655 274.069 716.749 290.995C746.694 322.243 762.318 363.907 763.62 415.987C763.62 457.651 756.46 492.154 742.138 519.496C727.816 546.838 702.427 569.623 665.971 587.85C641.233 599.569 608.683 606.729 568.321 609.333C586.55 618.447 599.895 627.887 608.358 637.652C616.822 647.417 622.355 662.715 624.96 683.547L624.96 745.068L626.912 804.634C630.818 811.145 635.376 816.678 640.584 821.236C645.792 825.793 650.349 829.048 654.255 831.001C658.16 832.954 659.463 835.884 658.16 839.79C656.858 843.696 651.65 845.649 642.537 845.649C620.402 845.649 602.826 837.837 589.806 822.212C585.9 815.702 583.947 807.891 583.947 798.776L583.947 705.032C583.947 694.616 581.343 687.129 576.135 682.572C570.927 678.014 565.719 675.085 560.511 673.783L560.511 796.822C560.511 818.956 563.115 833.278 568.323 839.788C573.531 846.298 576.786 852.809 578.089 859.318C579.391 860.62 578.414 861.596 575.159 862.247C571.905 862.897 566.371 861.922 558.558 859.318C541.632 855.412 529.914 846.623 523.404 832.952C516.894 819.281 513.639 804.633 513.639 789.009L513.639 667.926L488.25 667.926L488.25 789.012C488.25 804.636 484.994 819.61 478.484 833.931C469.371 852.16 452.444 861.924 427.707 863.226C423.801 861.924 421.848 860.622 421.848 859.321C423.15 858.018 427.056 851.509 433.566 839.791C434.868 837.187 436.496 831.979 438.449 824.167C440.403 816.355 441.379 807.241 441.379 796.825L441.379 673.785C436.171 675.087 431.288 678.016 426.731 682.574C422.174 687.132 419.895 694.618 419.895 705.034L419.895 798.778C419.895 807.891 417.942 815.704 414.036 822.214C402.318 837.838 384.741 845.651 361.306 845.651C352.192 845.651 346.984 843.698 345.682 839.792C344.379 837.188 344.705 834.909 346.659 832.956C348.613 831.003 351.542 828.724 355.448 826.12C359.354 823.516 361.958 821.562 363.26 820.261C368.468 816.355 372.373 811.147 374.978 804.637C378.884 799.429 379.86 785.758 377.907 763.624C375.954 741.49 375.628 727.168 376.93 720.658C343.077 732.376 308.575 726.516 273.42 703.081C263.004 692.665 252.588 677.691 242.172 658.162C234.36 643.839 218.736 626.913 195.301 607.383Z" fill="#000000" fill-rule="evenodd" opacity="1" stroke="none"/>
</g>
</svg>
